<?xml version="1.0" encoding="iso-8859-1"?>
<!-- Generator: Adobe Illustrator 19.0.0, SVG Export Plug-In . SVG Version: 6.00 Build 0)  -->
<svg version="1.1" id="Layer_1" xmlns="http://www.w3.org/2000/svg" xmlns:xlink="http://www.w3.org/1999/xlink" x="0px" y="0px"
	 viewBox="0 0 512.003 512.003" style="enable-background:new 0 0 512.003 512.003;" xml:space="preserve">
<g>
	<path style="fill:#A72328;" d="M477.459,364.072h-41.613c-7.588,0-13.741-6.152-13.741-13.741c0-7.589,6.153-13.741,13.741-13.741
		h41.613c3.893,0,7.06-3.167,7.06-7.059v-84.555c0-7.224-5.874-13.141-13.095-13.191l-139.514-0.095
		c-7.588-0.005-13.737-6.161-13.731-13.751c0.005-7.586,6.156-13.731,13.741-13.731c0.003,0,0.007,0,0.01,0l139.6,0.095
		c22.357,0.155,40.473,18.402,40.473,40.673v84.555C512,348.577,496.506,364.072,477.459,364.072z"/>
	<path style="fill:#A72328;" d="M189.665,231.303H93.051c-7.588,0-13.741-6.152-13.741-13.741s6.153-13.741,13.741-13.741h96.613
		c7.588,0,13.741,6.152,13.741,13.741S197.254,231.303,189.665,231.303z"/>
	<path style="fill:#A72328;" d="M241.743,182.128c-7.588,0-13.741-6.152-13.741-13.741v-55.951c0-7.589,6.153-13.741,13.741-13.741
		s13.741,6.152,13.741,13.741v55.952C255.484,175.976,249.331,182.128,241.743,182.128z"/>
	<path style="fill:#A72328;" d="M268.531,364.072H34.542C15.494,364.072,0,348.577,0,329.531v-71.716
		c0-19.035,12.954-35.33,31.5-39.626L84.524,205.9l60.397-93.602c7.079-10.964,19.089-17.509,32.125-17.509h197.667
		c16.813,0,31.894,11.273,36.672,27.413l10.729,37.016c2.113,7.288-2.085,14.91-9.371,17.022
		c-7.285,2.115-14.912-2.082-17.024-9.373l-10.707-36.941c-1.326-4.477-5.571-7.656-10.299-7.656H177.046
		c-3.665,0-7.042,1.843-9.035,4.93l-63.415,98.277c-1.936,3.001-4.963,5.13-8.444,5.936L37.704,244.96
		c-6.019,1.395-10.221,6.68-10.221,12.853v71.716c0,3.893,3.167,7.059,7.06,7.059h233.989c7.588,0,13.741,6.152,13.741,13.741
		S276.119,364.072,268.531,364.072z"/>
</g>
<circle style="fill:#F4DABB;" cx="140.914" cy="350.328" r="53.146"/>
<path style="fill:#A72328;" d="M140.907,417.214c-36.882,0-66.887-30.005-66.887-66.887s30.005-66.887,66.887-66.887
	s66.889,30.005,66.889,66.887S177.79,417.214,140.907,417.214z M140.907,310.92c-21.729,0-39.405,17.678-39.405,39.405
	c0,21.727,17.676,39.405,39.405,39.405s39.406-17.678,39.406-39.405C180.314,328.598,162.635,310.92,140.907,310.92z"/>
<circle style="fill:#F4DABB;" cx="385.834" cy="350.328" r="53.146"/>
<path style="fill:#A72328;" d="M385.835,417.214c-36.882,0-66.887-30.005-66.887-66.887s30.005-66.887,66.887-66.887
	s66.889,30.005,66.889,66.887S422.718,417.214,385.835,417.214z M385.835,310.92c-21.729,0-39.405,17.678-39.405,39.405
	c0,21.727,17.676,39.405,39.405,39.405s39.407-17.678,39.407-39.405C425.242,328.598,407.564,310.92,385.835,310.92z"/>
<path style="fill:#F4DABB;" d="M241.746,108.53v109.027H101.954v-13.326l54.513-84.483c4.511-6.987,12.265-11.218,20.579-11.218
	L241.746,108.53L241.746,108.53z"/>
<g>
	<path style="fill:#A72328;" d="M241.746,231.298H101.953c-7.588,0-13.741-6.152-13.741-13.741v-13.326
		c0-2.642,0.763-5.23,2.196-7.45l54.513-84.483c7.079-10.964,19.089-17.509,32.125-17.509h64.7c7.588,0,13.741,6.152,13.741,13.741
		v109.027C255.487,225.146,249.334,231.298,241.746,231.298z M118.574,203.816h109.431V122.27h-50.959
		c-3.665,0-7.042,1.843-9.035,4.93L118.574,203.816z"/>
	<path style="fill:#A72328;" d="M241.743,297.224c-7.588,0-13.741-6.152-13.741-13.741V168.389c0-7.589,6.153-13.741,13.741-13.741
		s13.741,6.152,13.741,13.741v115.095C255.484,291.073,249.331,297.224,241.743,297.224z"/>
</g>
<g>
</g>
<g>
</g>
<g>
</g>
<g>
</g>
<g>
</g>
<g>
</g>
<g>
</g>
<g>
</g>
<g>
</g>
<g>
</g>
<g>
</g>
<g>
</g>
<g>
</g>
<g>
</g>
<g>
</g>
</svg>
