<?xml version="1.0" encoding="iso-8859-1"?>
<!-- Generator: Adobe Illustrator 19.0.0, SVG Export Plug-In . SVG Version: 6.00 Build 0)  -->
<svg version="1.1" id="Layer_1" xmlns="http://www.w3.org/2000/svg" xmlns:xlink="http://www.w3.org/1999/xlink" x="0px" y="0px"
	 viewBox="0 0 512 512" style="enable-background:new 0 0 512 512;" xml:space="preserve">
<path style="fill:#F79D1E;" d="M305.986,410.924c-0.073-0.109-0.147-0.215-0.222-0.322l-35.832-50.78
	c-3.196-4.528-8.392-7.221-13.933-7.221c-0.023,0-0.047,0-0.069,0c-5.566,0.023-10.77,2.76-13.943,7.334l-34.802,50.172
	c-13.208,18.177-15.359,42.084-5.602,62.453c9.718,20.285,28.814,32.995,51.093,34c1,0.044,2.007,0.067,3.018,0.067
	c1.012,0,2.018-0.023,3.03-0.068c21.981-0.99,41.072-13.419,51.072-33.246C319.876,453.327,318.415,429.421,305.986,410.924z"/>
<path style="fill:#FBB03B;" d="M256,352.601c-0.023,0-0.047,0-0.069,0c-5.566,0.023-10.77,2.76-13.943,7.334l-34.802,50.172
	c-13.208,18.177-15.359,42.084-5.602,62.453c9.718,20.286,28.814,32.995,51.093,34c1,0.044,2.007,0.067,3.018,0.067
	C256.709,506.625,256,352.601,256,352.601z"/>
<path style="fill:#BC2A46;" d="M256.305,496.19c-9.417,0-17.052-7.635-17.052-17.052v-21.826c0-9.417,7.635-17.052,17.052-17.052
	c9.417,0,17.052,7.635,17.052,17.052v21.826C273.357,488.555,265.722,496.19,256.305,496.19z"/>
<path style="fill:#D62D46;" d="M256.305,496.19c-9.417,0-17.052-7.635-17.052-17.052v-21.826c0-9.417,7.635-17.052,17.052-17.052
	C256.305,441.268,256.305,496.19,256.305,496.19z"/>
<path style="fill:#CFCDD6;" d="M309.68,512H202.321c-5.601,0-10.845-2.751-14.03-7.36l-81.098-117.37
	c-12.83-18.568-23.714-38.557-32.352-59.41c-3.604-8.7,0.527-18.677,9.229-22.281c8.702-3.603,18.676,0.53,22.281,9.229
	c7.717,18.63,17.44,36.488,28.902,53.076l76.013,110.012h89.469l76.013-110.012c10.862-15.72,20.175-32.6,27.679-50.168
	c3.699-8.661,13.719-12.684,22.381-8.982c8.66,3.699,12.682,13.719,8.982,22.381c-8.4,19.665-18.825,38.56-30.983,56.157
	l-81.098,117.37C320.525,509.249,315.281,512,309.68,512z"/>
<path style="fill:#DEE1E7;" d="M256,512h-53.679c-5.601,0-10.845-2.751-14.03-7.36l-81.098-117.37
	c-12.83-18.568-23.714-38.557-32.352-59.41c-3.604-8.7,0.527-18.677,9.229-22.281c8.702-3.603,18.676,0.53,22.281,9.229
	c7.717,18.63,17.44,36.488,28.902,53.076l76.013,110.012h44.735V512H256z"/>
<path style="fill:#39B7B6;" d="M438.238,325.34c15.315-37.819,23.258-78.347,23.258-119.844C461.497,92.185,369.312,0,256,0
	S50.504,92.185,50.504,205.497c0,41.498,7.943,82.025,23.258,119.843H438.238z"/>
<path style="fill:#66CBC4;" d="M255.989,325.34L256,0C142.689,0,50.504,92.185,50.504,205.497c0,41.498,7.943,82.025,23.258,119.843
	H255.989z"/>
<g>
</g>
<g>
</g>
<g>
</g>
<g>
</g>
<g>
</g>
<g>
</g>
<g>
</g>
<g>
</g>
<g>
</g>
<g>
</g>
<g>
</g>
<g>
</g>
<g>
</g>
<g>
</g>
<g>
</g>
</svg>
